<svg width="16" height="30" fill="none" xmlns="http://www.w3.org/2000/svg"><path d="M12.3 6.04c1 0 2 0 2.7-.32.4-.83.6-1.97.6-3.12-.2 0-.1-.31-.2-.42 0-.2-.3-.2-.3-.41-.3-.21-.5-.42-.7-.63-.7-.2-1.4-.31-2.2-.52-.8 0-1.9-.1-2.6.1-2.6 0-4 1.15-5.29 2.5 0 .1 0 .21-.1.21-.6 1.67-.1 3.75-.2 5.84.1.41.1 1.04.2 1.45-1 .32-2.2.42-3.4.53-.3.3-.2 1.14-.2 1.77.1.62.3 1.14.4 1.66.2.21.6.42.8.52.1 0 .1.1.1.1.5.32 1.5 0 2.3.11-.1 2.08.3 4.06 0 5.94 0 .31.3.42.2.83 0 1.04-.1 2.09.2 2.81-.3.53-.5 1.05-.4 1.88.1 0 .1.2.1.31-.1.52.6.21.5.73.2.52-.4.2-.4.52v.94c.5.31 1.5.2 2.3.2.9-.4 2.2-.51 2.8-1.24.5.2.9 0 1.2-.21 0-.31.3-.31.2-.73 0-.31-.2-.52-.1-.94v-3.02c-.2-2.4 0-5.1-.3-7.5.9-.1 1.9-.1 2.6-.41.4-.53.4-1.25.5-1.98.2-.21.2-.63.2-1.04.2-.21.1-.73.1-1.15-.1-.63-.2-1.35-.8-1.46-.9-.2-2 .63-3 .31 0-1.14-.3-2.4 0-3.54.8-.2 1.5-.41 2.2-.62zm-3.8 5c.1.3.3.52.4.73.1 0 .2 0 .2.1 1.2.1 2.2-.1 3.1-.31 0 1.04-.3 1.77-.5 2.6-.7 0-1.5.31-2 .21-.3.2-.4.52-.6.73 0 .42.1.52 0 .83-.2.1-.1.63-.2.84v1.56c.1.31-.1.31-.1.52v3.64c-.1.32.1.32.1.53v3.12c.1.31-.1.83.1.94-.1.41-.4 0-.8.1-.5.1-.9.42-1.5.42.1-.42.3-.63.3-1.15 0-.41-.4-.31-.5-.52.2-.62.6-1.14.7-1.87.2-.52.7-1.36.3-1.88-.5-.1-.5.31-.8.42 0 .1 0 .2-.1.2 0 .11 0 .22-.1.22 0 .1-.2.1 0 0 0-.1 0-.21.1-.21 0-.1 0-.21.1-.21v-.31c.4-.63.7-1.25.8-2.09.2-.3.3-.73.4-1.04.2-.31.3-.94.1-1.25-.5 0-.8.31-.9.73-.3-.2.2-.42.1-.73.1-.2.2-.62.3-.83.2-.42.6-1.36 0-1.67-.4 0-.6.21-.7.52-.2.21-.4.42-.5.73-.4-.1-.1-.73-.2-1.14-.1-.53.1-.94 0-1.25-.59-.84-1.99-.1-3.19-.32-.1-.3-.2-1.04-.1-1.25 1-.1 2.5.21 3.2-.2 0-.1 0-.21.1-.21.1-.73-.3-1.04-.5-1.46.2-.83 0-2.08.1-3.13.2-.1.3-.41.5-.62.1-1.04.7-1.56.7-2.6-.3 0-.6-.11-.6.2-.3-.1-.4.52-.5.21-.1-.52.2-.62.3-1.04.6-.42 1.2-.83 1.9-1.25 1.7-.2 4.6-.42 6.09.2.1.63-.3.95-.2 1.57h-1.5c-1.1.2-2 .73-3 1.04-.2.1-.3.31-.5.42 0 .42-.2.62-.3 1.04-.3 1.46-.1 2.7-.1 4.17z" fill="#000"/></svg>